HIERARCHY
ROOT Hips
{
 OFFSET 0.000000 0.000000 0.000000
 CHANNELS 6 Xposition Yposition Zposition Yrotation Xrotation Zrotation
 JOINT Chest
 {
  OFFSET 0.000000 9.588913 -0.003946
  CHANNELS 3 Yrotation Xrotation Zrotation
  JOINT Chest2
  {
   OFFSET 0.000000 9.541882 0.008053
   CHANNELS 3 Yrotation Xrotation Zrotation
   JOINT Chest3
   {
    OFFSET 0.000000 9.501360 0.000000
    CHANNELS 3 Yrotation Xrotation Zrotation
    JOINT Chest4
    {
     OFFSET 0.000000 9.491660 0.000000
     CHANNELS 3 Yrotation Xrotation Zrotation
     JOINT Neck
     {
      OFFSET 0.000000 14.331917 0.000000
      CHANNELS 3 Yrotation Xrotation Zrotation
      JOINT Head
      {
       OFFSET 0.000000 8.884799 0.017034
       CHANNELS 3 Yrotation Xrotation Zrotation
       End Site
       {
        OFFSET 0.000000 16.896195 0.008993
       }
      }
     }
     JOINT RightCollar
     {
      OFFSET -2.923010 9.499495 0.000000
      CHANNELS 3 Yrotation Xrotation Zrotation
      JOINT RightShoulder
      {
       OFFSET -13.795216 0.000000 0.000000
       CHANNELS 3 Yrotation Xrotation Zrotation
       JOINT RightElbow
       {
        OFFSET -30.272209 0.000000 0.000000
        CHANNELS 3 Yrotation Xrotation Zrotation
        JOINT RightWrist
        {
         OFFSET -24.478199 0.000000 0.000000
         CHANNELS 3 Yrotation Xrotation Zrotation
         End Site
         {
          OFFSET -18.090752 0.000000 0.000000
         }
        }
       }
      }
     }
     JOINT LeftCollar
     {
      OFFSET 2.923010 9.499495 0.000000
      CHANNELS 3 Yrotation Xrotation Zrotation
      JOINT LeftShoulder
      {
       OFFSET 13.795216 0.000000 0.000000
       CHANNELS 3 Yrotation Xrotation Zrotation
       JOINT LeftElbow
       {
        OFFSET 30.272209 0.000000 0.000000
        CHANNELS 3 Yrotation Xrotation Zrotation
        JOINT LeftWrist
        {
         OFFSET 24.478199 0.000000 0.000000
         CHANNELS 3 Yrotation Xrotation Zrotation
         End Site
         {
          OFFSET 18.090752 0.000000 0.000000
         }
        }
       }
      }
     }
    }
   }
  }
 }
 JOINT RightHip
 {
  OFFSET -7.826875 0.019532 0.001973
  CHANNELS 3 Yrotation Xrotation Zrotation
  JOINT RightKnee
  {
   OFFSET 0.000000 -40.546152 -0.001885
   CHANNELS 3 Yrotation Xrotation Zrotation
   JOINT RightAnkle
   {
    OFFSET 0.000000 -39.417092 -0.003189
    CHANNELS 3 Yrotation Xrotation Zrotation
    JOINT RightToe
    {
     OFFSET 0.000000 -7.579396 17.243563
     CHANNELS 3 Yrotation Xrotation Zrotation
     End Site
     {
      OFFSET 0.000000 -1.500329 6.694466
     }
    }
   }
  }
 }
 JOINT LeftHip
 {
  OFFSET 7.826875 0.019532 0.001973
  CHANNELS 3 Yrotation Xrotation Zrotation
  JOINT LeftKnee
  {
   OFFSET 0.000000 -40.546152 -0.001885
   CHANNELS 3 Yrotation Xrotation Zrotation
   JOINT LeftAnkle
   {
    OFFSET 0.000000 -39.417092 -0.003189
    CHANNELS 3 Yrotation Xrotation Zrotation
    JOINT LeftToe
    {
     OFFSET 0.000000 -7.579396 17.243563
     CHANNELS 3 Yrotation Xrotation Zrotation
     End Site
     {
      OFFSET 0.000000 -1.500329 6.694466
     }
    }
   }
  }
 }
}
MOTION
Frames: 8
Frame Time: 0.008333
0.000000 87.345680 0.000000 0.000000 -5.767889 0.000000 0.000000 11.653876 0.000000 0.000000 -5.885988 0.000000 0.000000 -0.000000 0.000000 0.000000 -0.000000 0.000000 0.000000 12.528808 0.000000 0.000000 0.711711 0.000000 0.000000 -0.000000 0.000000 0.000000 -0.000000 0.000000 2.309063 -0.000000 0.000000 -2.309063 -0.000000 -0.000000 0.000000 -0.000000 0.000000 0.000000 0.000000 0.000000 -2.309063 0.000000 0.000000 2.309063 -0.000000 0.000000 0.000000 8.520374 0.000000 0.000000 1.905768 0.000000 -0.000000 -4.658254 0.000000 0.000000 -0.000000 0.000000 0.000000 8.520374 0.000000 0.000000 1.905768 0.000000 -0.000000 -4.658254 0.000000 0.000000 -0.000000 0.000000
0.036242 88.222720 27.563304 -50.348138 -8.224755 1.317863 3.935496 2.022621 -0.073377 2.234116 1.158270 0.030556 2.792884 1.447583 0.045254 2.234116 1.158270 0.030556 1.649834 20.710568 -1.299125 2.058109 -3.700601 -1.763698 -2.159466 -1.104493 0.958503 2.425789 2.601772 87.745443 -0.005349 0.076374 0.145692 0.717472 -1.897248 -1.367189 -12.117536 -0.481833 0.958099 11.599133 3.291837 -89.808584 -0.710382 1.654072 1.377348 2.567494 4.700918 -2.739713 0.908965 16.906870 -10.055581 0.153374 0.886190 -0.403969 -0.889625 -7.377341 6.856510 0.056667 -0.269194 -0.001950 15.499798 11.560807 7.034419 11.594669 3.585293 0.355278 4.260356 -6.119117 -4.454399 0.015626 0.218751 0.056833
0.068804 88.222178 27.612504 -50.330167 -8.193343 1.334791 3.937965 2.018558 -0.086963 2.235766 1.155452 0.029461 2.794942 1.444067 0.043873 2.235766 1.155452 0.029461 1.830151 20.720627 -1.287926 2.248928 -3.684128 -1.793539 -2.159604 -1.097136 0.967349 2.402179 2.609233 87.716843 0.024048 0.068116 0.156733 0.721607 -1.899681 -1.371937 -12.122078 -0.480337 0.960289 11.614718 3.312878 -89.796526 -0.702324 1.667842 1.395220 2.590596 4.717153 -2.749034 0.892600 16.873845 -10.111360 0.146731 0.906071 -0.414838 -0.893108 -7.375535 6.910088 0.053221 -0.276756 -0.001070 15.453806 11.624347 6.979425 11.631498 3.446326 0.287875 4.260140 -6.069185 -4.392929 0.008304 0.223215 0.057119
0.105657 88.221658 27.670053 -50.316119 -8.163026 1.348061 3.940275 2.013706 -0.097765 2.237218 1.153062 0.029172 2.796756 1.441081 0.043502 2.237218 1.153062 0.029172 2.049008 20.725005 -1.275228 2.480964 -3.672578 -1.830741 -2.160106 -1.087898 0.972924 2.379169 2.613102 87.693984 0.054886 0.057569 0.161772 0.722963 -1.898799 -1.374551 -12.123649 -0.478551 0.960842 11.625784 3.333225 -89.786945 -0.690119 1.679666 1.415622 2.613966 4.737415 -2.755204 0.882481 16.841762 -10.169006 0.139747 0.928489 -0.424616 -0.898205 -7.371518 6.968055 0.052838 -0.288386 0.000580 15.408081 11.697196 6.922184 11.677868 3.296580 0.220399 4.252411 -6.017752 -4.327309 0.002261 0.226870 0.057146
0.145986 88.221186 27.734459 -50.306454 -8.135223 1.359581 3.943385 2.008749 -0.106890 2.238762 1.151078 0.029386 2.798686 1.438599 0.043762 2.238762 1.151078 0.029386 2.307647 20.723600 -1.259277 2.755326 -3.665774 -1.873754 -2.164135 -1.075950 0.975784 2.355762 2.613477 87.678521 0.086466 0.048089 0.160268 0.722346 -1.896206 -1.375406 -12.125169 -0.474569 0.962005 11.635262 3.352790 -89.780493 -0.674786 1.689146 1.436479 2.639211 4.762081 -2.760838 0.871739 16.812355 -10.230276 0.132041 0.950160 -0.434521 -0.900364 -7.364727 7.030193 0.054820 -0.303056 0.002676 15.372997 11.777667 6.866501 11.739117 3.140156 0.148388 4.226714 -5.964676 -4.256754 -0.002713 0.228680 0.058057
0.188757 88.220810 27.803911 -50.302574 -8.111358 1.369369 3.948466 2.004569 -0.115331 2.241034 1.149613 0.029976 2.801527 1.436765 0.044498 2.241034 1.149613 0.029976 2.607432 20.716337 -1.237308 3.073089 -3.663455 -1.919981 -2.172195 -1.061711 0.979615 2.331571 2.612582 87.667713 0.118935 0.041358 0.153737 0.721129 -1.895445 -1.373474 -12.130382 -0.469026 0.966844 11.646717 3.372357 -89.775652 -0.652627 1.699004 1.458951 2.666029 4.789089 -2.769928 0.855420 16.787162 -10.294985 0.126443 0.967734 -0.445184 -0.897025 -7.353040 7.095777 0.057975 -0.320416 0.004892 15.355217 11.863981 6.815199 11.816651 2.980835 0.071518 4.181595 -5.909577 -4.183766 -0.007250 0.228453 0.061148
0.233018 88.220643 27.876979 -50.304858 -8.093615 1.377534 3.955694 2.002841 -0.123341 2.244043 1.149227 0.030964 2.805292 1.436275 0.045740 2.244043 1.149227 0.030964 2.951050 20.702472 -1.209409 3.437504 -3.665948 -1.970196 -2.182798 -1.047523 0.984413 2.308066 2.613667 87.658096 0.154550 0.035679 0.146260 0.719524 -1.896038 -1.367454 -12.137682 -0.466549 0.974514 11.657285 3.395037 -89.769781 -0.623614 1.710748 1.483785 2.693222 4.813933 -2.784294 0.833339 16.768432 -10.363056 0.127569 0.980403 -0.454989 -0.891616 -7.335387 7.163649 0.061437 -0.340126 0.006665 15.357263 11.954214 6.768147 11.906043 2.824376 -0.004906 4.120945 -5.852958 -4.114021 -0.011114 0.226234 0.067365
0.277968 88.220875 27.952829 -50.313630 -8.085148 1.385146 3.965226 2.005016 -0.129647 2.247807 1.150582 0.032710 2.810003 1.437957 0.047942 2.247807 1.150582 0.032710 3.339538 20.681957 -1.178679 3.850876 -3.672679 -2.028040 -2.196774 -1.036060 0.986706 2.287764 2.619478 87.648901 0.194551 0.027611 0.141519 0.718265 -1.896324 -1.361964 -12.146895 -0.467917 0.979263 11.662919 3.421676 -89.760991 -0.593483 1.720463 1.509268 2.721445 4.837699 -2.803344 0.811448 16.760021 -10.433173 0.134834 0.988983 -0.463964 -0.888574 -7.312163 7.234115 0.065297 -0.361661 0.007404 15.379415 12.048483 6.725427 11.995682 2.676654 -0.078331 4.054357 -5.796583 -4.051229 -0.013929 0.222155 0.076930
